<svg class="svg-icon" style="width: 1em;height: 1em;vertical-align: middle;fill: currentColor;overflow: hidden;" viewBox="0 0 1024 1024" version="1.1" xmlns="http://www.w3.org/2000/svg"><path d="M163.797333 284.48L64 184.682667l60.330667-60.352 784.426666 784.426666-60.330666 60.330667-66.432-66.432a341.12 341.12 0 0 1-99.264 14.677333H341.269333C152.789333 917.333333 0 764.544 0 576c0-123.434667 65.578667-231.573333 163.797333-291.52z m546.090667 546.090667L226.496 347.178667C142.805333 389.290667 85.333333 475.968 85.333333 576c0 141.418667 114.56 256 255.936 256h341.461334c9.173333 0 18.24-0.490667 27.157333-1.429333zM355.328 234.666667h119.189333L375.893333 136.064l60.330667-60.330667 203.136 203.114667-119.936 119.914667-60.330667-60.330667 18.432-18.432h-36.864l-85.333333-85.333333z m575.594667 575.573333l-60.373334-60.373333A255.104 255.104 0 0 0 938.666667 576c0-141.397333-114.624-256-256-256v-85.333333c188.501333 0 341.333333 152.810667 341.333333 341.333333 0 90.688-35.370667 173.12-93.077333 234.24z"  /></svg>