<svg class="svg-icon" style="width: 1em;height: 1em;vertical-align: middle;fill: currentColor;overflow: hidden;" viewBox="0 0 1024 1024" version="1.1" xmlns="http://www.w3.org/2000/svg"><path d="M240.693333 589.546667a32 32 0 0 0-22.666666 9.386666l-113.12 113.12a64 64 0 0 0 0 90.666667l113.12 113.013333a32 32 0 0 0 45.28-45.28L150.186667 757.333333l113.12-113.12a32 32 0 0 0-22.613334-54.666666zM783.306667 98.88a32 32 0 0 0-22.613334 54.666667L873.813333 266.666667l-113.12 113.12a32 32 0 1 0 45.28 45.28l113.12-113.12a64 64 0 0 0 0-90.666667L805.973333 108.266667a32 32 0 0 0-22.666666-9.386667z" fill="#333333" /><path d="M117.973333 544a32 32 0 0 1-32-32V437.333333a202.666667 202.666667 0 0 1 202.666667-202.666666h597.333333a32 32 0 0 1 0 64h-597.333333a138.666667 138.666667 0 0 0-138.666667 138.666666v74.666667a32 32 0 0 1-32 32zM736.64 789.333333h-602.666667a32 32 0 0 1 0-64h602.666667a138.666667 138.666667 0 0 0 138.666667-138.666666V512a32 32 0 0 1 64 0v74.666667a202.666667 202.666667 0 0 1-202.666667 202.666666z" fill="#333333" /></svg>